<svg id="Layer_1" data-name="Layer 1" xmlns="http://www.w3.org/2000/svg" width="1354.02mm" height="423.27mm" viewBox="0 0 3838.18 1199.82">
  <title>Gorizontal_without_symbol_logo</title>
  <g>
    <path d="M1253.57,3539.61c-9.49,2.53-20.58,3.83-33.31,3.83a99.82,99.82,0,0,1-39.28-7.66,86.3,86.3,0,0,1-31.43-22.91q-13.38-15.28-21-38.23t-7.64-53.48c0-22.66,2.67-41.76,8.13-57.32s12.46-28.17,21.37-37.78a79.57,79.57,0,0,1,30.34-20.81,97.52,97.52,0,0,1,34.39-6.36q37.78,0,58.19,10.19l8.49-31.41a133.82,133.82,0,0,0-27.63-7.44q-16.11-2.74-41.58-2.75a133.29,133.29,0,0,0-46.71,8.5,114.17,114.17,0,0,0-41.39,26.95q-18.46,18.49-29.72,47.55t-11.24,70.7q0,39.92,10.17,69t27.6,47.77a109.67,109.67,0,0,0,40.75,27.8,136.17,136.17,0,0,0,50.11,9.13,218.26,218.26,0,0,0,41.63-3.81q19.48-3.83,32.26-13.58l-8.5-27.61A92.85,92.85,0,0,1,1253.57,3539.61Z" transform="translate(-978.97 -2375.02)" fill="#1e0f00"/>
    <path d="M1703.4,3267.89l-112.49,301.86h35.21l29.58-82.38h109l30.42,82.38h37.38l-112.9-301.86Zm50.74,188.92h-87l32.52-89.58,10.57-45.86h.43l10.61,45Z" transform="translate(-978.97 -2375.02)" fill="#1e0f00"/>
    <path d="M2274.84,3436.43q29.32-7.22,48.41-28.86t19.11-56.47q0-22.51-8.07-38.21a71.76,71.76,0,0,0-21.44-25.48,86.39,86.39,0,0,0-31-14,159.35,159.35,0,0,0-37.15-4.24q-17.41,0-38.43,1.69a373.42,373.42,0,0,0-37.15,4.68v294.21h35.22V3435.17l41.68,6.35,81.88,128.22h41.18l-73.89-117.59Zm-37.35-24.62h-33.14V3302.29a42.9,42.9,0,0,1,7.87-1.28l10.42-.86c3.67-.27,7.48-.42,11.45-.42h11.44q28,0,43.76,14.85t15.71,37.79q0,30.57-19.1,45T2237.48,3411.81Z" transform="translate(-978.97 -2375.02)" fill="#1e0f00"/>
    <polygon points="1781.14 0 1694.92 0 1694.92 680.24 1713.35 680.24 2175.71 680.24 2175.71 594.01 1781.14 594.01 1781.14 0" fill="#1e0f00"/>
    <polygon points="890.88 0 890.88 680.24 909.32 680.24 1390.81 680.24 1390.81 594.01 977.11 594.01 977.11 383.23 1324.49 383.23 1324.49 297.01 977.11 297.01 977.11 86.23 1390.81 86.23 1390.81 0 977.11 0 890.88 0" fill="#1e0f00"/>
    <polygon points="2941.97 0 2820.03 0 2484.61 335.43 2484.61 0 2398.35 0 2398.35 680.24 2484.61 680.24 2484.61 457.38 2561.82 380.17 2861.91 680.24 2983.84 680.24 2622.83 319.2 2941.97 0" fill="#1e0f00"/>
    <path d="M4817.14,3055.26l-299.91-679.8.26-.45h-94.71l.22.47L4123.1,3055.26h94.27l252.76-573,121.74,276H4490.25c-97.3,0-89.19,86.25-89.19,86.25H4629.9l93,210.76Z" transform="translate(-978.97 -2375.02)" fill="#1e0f00"/>
    <path d="M1519.42,2694.1a190.64,190.64,0,0,0,48.84-127.46c0-104.24-83.26-188.87-186.92-191.4V2375H979.13s-8,86.23,89.22,86.23h.38v594h361.55c105.84,0,191.64-85.77,191.64-191.61A191.51,191.51,0,0,0,1519.42,2694.1ZM1430.28,2969H1155V2461.26h221.75A105.36,105.36,0,0,1,1482,2566.64c0,85.44-86.46,142.72-86.46,142.72s140.12,40.95,140.12,154.29A105.39,105.39,0,0,1,1430.28,2969Z" transform="translate(-978.97 -2375.02)" fill="#1e0f00"/>
  </g>
</svg>
